<svg xmlns="http://www.w3.org/2000/svg" xmlns:xlink="http://www.w3.org/1999/xlink" width="424" zoomAndPan="magnify" viewBox="0 0 318 58.499998" height="78" preserveAspectRatio="xMidYMid meet" version="1.0"><defs><g/></defs><path fill="#ffffff" d="M 11.554688 12.699219 L 30.433594 12.699219 L 30.433594 31.121094 L 11.554688 31.121094 Z M 11.554688 12.699219 " fill-opacity="1" fill-rule="nonzero"/><path fill="#231f20" d="M 51.160156 27.878906 C 51.105469 28.519531 51.1875 29.140625 51.402344 29.742188 C 51.550781 30.003906 51.867188 30.097656 52.476562 30.132812 L 53.71875 30.132812 L 53.71875 30.914062 C 52.367188 30.914062 51.160156 30.914062 50.011719 30.914062 C 48.863281 30.914062 47.550781 30.914062 46.195312 30.914062 L 46.195312 30.132812 L 47.4375 30.132812 C 48.066406 30.132812 48.363281 30.003906 48.53125 29.742188 C 48.726562 29.136719 48.800781 28.515625 48.753906 27.878906 L 48.753906 22.105469 C 48.4375 22.105469 47.753906 22.105469 46.621094 22.105469 L 40.566406 22.105469 C 39.417969 22.105469 38.710938 22.105469 38.417969 22.105469 L 38.417969 27.878906 C 38.363281 28.519531 38.441406 29.140625 38.65625 29.742188 C 38.804688 30.003906 39.121094 30.097656 39.730469 30.132812 L 40.972656 30.132812 L 40.972656 30.914062 C 39.640625 30.914062 38.417969 30.914062 37.269531 30.914062 C 36.121094 30.914062 34.804688 30.914062 33.46875 30.914062 L 33.46875 30.132812 L 34.691406 30.132812 C 35.324219 30.132812 35.617188 30.003906 35.785156 29.742188 C 35.992188 29.136719 36.066406 28.515625 36.007812 27.878906 L 36.007812 16.253906 C 36.066406 15.617188 35.992188 14.996094 35.785156 14.394531 C 35.617188 14.132812 35.324219 14.019531 34.691406 14 L 33.46875 14 L 33.46875 13.070312 C 34.804688 13.070312 36.007812 13.070312 37.269531 13.070312 C 38.527344 13.070312 39.675781 13.070312 40.972656 13.070312 L 40.972656 13.851562 L 39.730469 13.851562 C 39.121094 13.851562 38.804688 13.984375 38.65625 14.242188 C 38.441406 14.847656 38.363281 15.46875 38.417969 16.105469 L 38.417969 20.855469 C 38.730469 20.855469 39.417969 20.855469 40.566406 20.855469 L 46.585938 20.855469 C 47.714844 20.855469 48.4375 20.855469 48.714844 20.855469 L 48.714844 16.253906 C 48.765625 15.621094 48.691406 15 48.492188 14.394531 C 48.328125 14.132812 48.03125 14.019531 47.402344 14 L 46.160156 14 L 46.160156 13.070312 C 47.511719 13.070312 48.714844 13.070312 49.976562 13.070312 C 51.234375 13.070312 52.367188 13.070312 53.679688 13.070312 L 53.679688 13.851562 L 52.441406 13.851562 C 51.828125 13.851562 51.511719 13.984375 51.367188 14.242188 C 51.148438 14.847656 51.070312 15.46875 51.125 16.105469 Z M 51.160156 27.878906 " fill-opacity="1" fill-rule="nonzero"/><path fill="#231f20" d="M 56.460938 19.253906 C 56.503906 18.726562 56.441406 18.210938 56.273438 17.707031 C 56.144531 17.390625 55.902344 17.390625 55.402344 17.390625 L 54.421875 17.390625 L 54.421875 16.648438 L 57.886719 16.648438 C 59.738281 16.648438 61.589844 16.648438 62.757812 16.648438 C 63.925781 16.648438 64.609375 16.648438 65.40625 16.648438 C 65.175781 17.683594 65.066406 18.734375 65.074219 19.792969 L 64.332031 19.792969 L 64.332031 18.507812 C 64.332031 18.25 64.332031 18.023438 64.148438 17.949219 C 62.824219 17.59375 61.476562 17.449219 60.109375 17.523438 C 59.523438 17.503906 58.941406 17.5625 58.367188 17.691406 L 58.367188 23.277344 C 59.035156 23.277344 59.777344 23.277344 60.757812 23.277344 C 61.519531 23.328125 62.257812 23.230469 62.980469 22.980469 C 63.109375 22.824219 63.164062 22.640625 63.148438 22.441406 L 63.257812 21.359375 L 63.871094 21.359375 C 63.871094 22.214844 63.871094 23 63.871094 23.761719 C 63.871094 24.527344 63.871094 25.308594 63.871094 26.054688 L 63.257812 26.054688 L 63.148438 24.84375 C 63.148438 24.5625 63.148438 24.378906 62.980469 24.320312 C 62.269531 24.082031 61.539062 24 60.792969 24.078125 C 59.8125 24.078125 59.054688 24.078125 58.40625 24.078125 L 58.40625 29.871094 C 58.976562 30 59.558594 30.058594 60.144531 30.039062 C 61.546875 30.152344 62.941406 30.109375 64.332031 29.910156 C 64.648438 29.742188 64.90625 28.828125 65.054688 27.582031 L 65.777344 27.582031 C 65.558594 28.707031 65.449219 29.84375 65.445312 30.992188 C 64.535156 30.992188 62.925781 30.992188 61.386719 30.992188 L 56.921875 30.992188 C 56.144531 30.992188 55.460938 30.992188 54.71875 30.992188 L 54.71875 30.429688 L 55.460938 30.429688 C 55.960938 30.429688 56.199219 30.339844 56.332031 30.132812 C 56.496094 29.625 56.554688 29.101562 56.515625 28.570312 Z M 56.460938 19.253906 " fill-opacity="1" fill-rule="nonzero"/><path fill="#231f20" d="M 68.59375 19.253906 C 68.648438 18.726562 68.585938 18.210938 68.410156 17.707031 C 68.296875 17.390625 68.039062 17.390625 67.554688 17.390625 L 66.648438 17.390625 L 66.648438 16.648438 C 67.554688 16.648438 68.371094 16.648438 69.113281 16.648438 C 69.484375 16.648438 69.855469 16.648438 70.222656 16.648438 L 80.078125 28.867188 L 80.078125 19.253906 C 80.132812 18.726562 80.070312 18.210938 79.894531 17.707031 C 79.820312 17.390625 79.578125 17.390625 79.152344 17.390625 L 78.246094 17.390625 L 78.246094 16.648438 C 79.078125 16.648438 79.894531 16.648438 80.636719 16.648438 C 81.375 16.648438 82.210938 16.648438 83.117188 16.648438 L 83.117188 17.28125 L 82.210938 17.28125 C 81.710938 17.28125 81.46875 17.28125 81.339844 17.597656 C 81.09375 18.121094 80.980469 18.675781 81.003906 19.253906 L 81.003906 30.691406 C 81.003906 30.933594 81.003906 31.195312 81.003906 31.457031 L 79.152344 31.121094 L 69.464844 19.011719 L 69.464844 28.570312 C 69.421875 29.101562 69.484375 29.625 69.648438 30.132812 C 69.78125 30.339844 70.019531 30.394531 70.519531 30.429688 L 71.429688 30.429688 L 71.429688 31.066406 L 66.574219 31.066406 L 66.574219 30.429688 L 67.480469 30.429688 C 67.964844 30.429688 68.222656 30.339844 68.335938 30.132812 C 68.507812 29.625 68.570312 29.105469 68.519531 28.570312 Z M 68.59375 19.253906 " fill-opacity="1" fill-rule="nonzero"/><path fill="#231f20" d="M 87.601562 28.570312 C 87.550781 29.105469 87.613281 29.625 87.785156 30.132812 C 87.914062 30.339844 88.15625 30.414062 88.65625 30.429688 L 89.636719 30.429688 L 89.636719 31.066406 L 83.597656 31.066406 L 83.597656 30.429688 L 84.597656 30.429688 C 85.082031 30.429688 85.339844 30.339844 85.453125 30.132812 C 85.625 29.625 85.6875 29.105469 85.636719 28.570312 L 85.636719 19.253906 C 85.691406 18.726562 85.628906 18.210938 85.453125 17.707031 C 85.339844 17.390625 85.082031 17.390625 84.597656 17.390625 L 83.746094 17.390625 L 83.746094 16.648438 C 84.839844 16.648438 86.042969 16.648438 87.25 16.648438 C 88.453125 16.648438 89.65625 16.648438 90.953125 16.648438 C 94.25 16.648438 95.101562 18.265625 95.101562 19.757812 C 95.050781 20.28125 94.910156 20.777344 94.683594 21.25 C 94.457031 21.722656 94.15625 22.140625 93.78125 22.507812 C 93.40625 22.875 92.980469 23.164062 92.503906 23.382812 C 92.027344 23.597656 91.53125 23.722656 91.007812 23.761719 L 95.675781 29.890625 C 96.011719 30.269531 96.433594 30.445312 96.9375 30.414062 L 96.9375 31.046875 L 95.457031 31.046875 C 94.972656 31.046875 94.527344 31.046875 94.046875 31.046875 C 93.789062 30.65625 93.472656 30.300781 93.195312 29.929688 L 89.417969 24.84375 C 89.082031 24.394531 88.695312 24.003906 88.339844 23.558594 L 88.414062 23.277344 C 89.035156 23.34375 89.652344 23.34375 90.269531 23.277344 C 90.625 23.230469 90.960938 23.125 91.28125 22.957031 C 91.597656 22.792969 91.878906 22.574219 92.125 22.308594 C 92.367188 22.042969 92.558594 21.746094 92.699219 21.414062 C 92.839844 21.078125 92.917969 20.734375 92.9375 20.371094 C 92.9375 18.136719 91.289062 17.503906 89.675781 17.503906 C 88.964844 17.492188 88.269531 17.582031 87.582031 17.765625 Z M 87.601562 28.570312 " fill-opacity="1" fill-rule="nonzero"/><path fill="#231f20" d="M 102.996094 23.910156 L 105.089844 20.539062 C 105.902344 19.234375 106.625 17.933594 107.3125 16.609375 L 108.960938 16.609375 L 108.960938 16.925781 C 107.011719 19.1875 105.324219 21.636719 103.902344 24.265625 C 103.679688 24.761719 103.582031 25.285156 103.605469 25.832031 L 103.605469 28.570312 C 103.554688 29.105469 103.617188 29.625 103.792969 30.132812 C 103.921875 30.339844 104.164062 30.414062 104.664062 30.429688 L 105.644531 30.429688 L 105.644531 31.066406 L 99.605469 31.066406 L 99.605469 30.429688 L 100.605469 30.429688 C 101.085938 30.429688 101.347656 30.339844 101.457031 30.132812 C 101.632812 29.625 101.691406 29.105469 101.644531 28.570312 L 101.644531 25.550781 C 101.660156 25.261719 101.597656 24.988281 101.457031 24.730469 L 98.902344 20.261719 C 97.84375 18.398438 96.789062 17.617188 96.269531 17.558594 L 95.675781 17.558594 L 95.675781 16.90625 L 98.050781 16.40625 C 98.457031 16.3125 98.769531 16.738281 99.125 17.167969 C 99.457031 17.59375 99.761719 18.039062 100.03125 18.507812 Z M 102.996094 23.910156 " fill-opacity="1" fill-rule="nonzero"/><path fill="#231f20" d="M 123.816406 17.390625 L 123.613281 15.882812 C 123.613281 15.195312 123.445312 14.933594 122.484375 14.335938 C 121.621094 13.878906 120.699219 13.65625 119.722656 13.667969 C 119.476562 13.660156 119.230469 13.675781 118.984375 13.71875 C 118.742188 13.761719 118.503906 13.828125 118.269531 13.917969 C 118.039062 14.007812 117.820312 14.121094 117.613281 14.253906 C 117.402344 14.390625 117.210938 14.542969 117.03125 14.71875 C 116.851562 14.890625 116.695312 15.082031 116.554688 15.285156 C 116.414062 15.492188 116.296875 15.710938 116.199219 15.941406 C 116.101562 16.167969 116.03125 16.40625 115.980469 16.652344 C 115.929688 16.894531 115.90625 17.140625 115.90625 17.390625 C 115.90625 19.144531 116.945312 20.242188 120.148438 20.597656 C 123.855469 20.988281 126.078125 21.882812 126.078125 24.84375 C 126.078125 29.257812 122.132812 31.382812 118.316406 31.382812 C 116.777344 31.378906 115.308594 31.0625 113.90625 30.429688 C 114.078125 29.121094 114.136719 27.804688 114.089844 26.480469 L 114.90625 26.480469 L 115.109375 28.214844 C 115.238281 29.296875 117.277344 30.28125 119.316406 30.28125 C 119.597656 30.308594 119.878906 30.308594 120.160156 30.277344 C 120.445312 30.246094 120.71875 30.1875 120.988281 30.101562 C 121.257812 30.015625 121.519531 29.902344 121.765625 29.761719 C 122.011719 29.621094 122.242188 29.460938 122.457031 29.273438 C 122.671875 29.085938 122.867188 28.882812 123.039062 28.65625 C 123.210938 28.429688 123.363281 28.191406 123.488281 27.933594 C 123.609375 27.679688 123.710938 27.414062 123.78125 27.136719 C 123.851562 26.859375 123.894531 26.582031 123.910156 26.296875 C 123.910156 23.835938 122.058594 23.148438 119.390625 22.832031 C 115.351562 22.367188 113.832031 21.097656 113.832031 18.398438 C 113.847656 17.984375 113.902344 17.578125 114 17.175781 C 114.097656 16.777344 114.234375 16.386719 114.410156 16.015625 C 114.585938 15.640625 114.796875 15.289062 115.042969 14.960938 C 115.289062 14.628906 115.566406 14.328125 115.871094 14.054688 C 116.179688 13.78125 116.511719 13.542969 116.867188 13.335938 C 117.222656 13.128906 117.597656 12.960938 117.988281 12.832031 C 118.375 12.703125 118.777344 12.613281 119.183594 12.566406 C 119.589844 12.519531 120 12.511719 120.410156 12.546875 C 122.015625 12.613281 123.546875 12.984375 125.003906 13.667969 C 124.75 14.894531 124.625 16.136719 124.632812 17.390625 Z M 123.816406 17.390625 " fill-opacity="1" fill-rule="nonzero"/><path fill="#231f20" d="M 139.5625 30.28125 C 138.148438 31.007812 136.648438 31.382812 135.0625 31.398438 C 130.117188 31.398438 126.78125 28.550781 126.78125 23.949219 C 126.742188 22.871094 126.945312 21.839844 127.386719 20.855469 C 127.832031 19.875 128.46875 19.042969 129.300781 18.359375 C 130.148438 17.691406 131.082031 17.183594 132.101562 16.84375 C 133.121094 16.5 134.171875 16.34375 135.246094 16.367188 C 136.878906 16.390625 138.46875 16.679688 140.007812 17.222656 C 139.769531 18.261719 139.640625 19.308594 139.621094 20.371094 L 138.972656 20.371094 L 138.972656 18.882812 C 138.972656 18.304688 138.15625 17.949219 137.117188 17.597656 C 136.363281 17.363281 135.59375 17.242188 134.804688 17.242188 C 134.402344 17.238281 134.003906 17.273438 133.609375 17.351562 C 133.214844 17.429688 132.832031 17.550781 132.464844 17.707031 C 132.09375 17.867188 131.746094 18.0625 131.414062 18.292969 C 131.085938 18.527344 130.785156 18.789062 130.511719 19.085938 C 130.238281 19.382812 129.996094 19.703125 129.789062 20.050781 C 129.582031 20.394531 129.414062 20.757812 129.28125 21.140625 C 129.152344 21.523438 129.058594 21.914062 129.011719 22.316406 C 128.960938 22.714844 128.953125 23.117188 128.984375 23.519531 C 128.957031 23.972656 128.980469 24.425781 129.046875 24.875 C 129.117188 25.324219 129.230469 25.761719 129.390625 26.183594 C 129.550781 26.609375 129.757812 27.011719 130.003906 27.394531 C 130.25 27.773438 130.53125 28.125 130.855469 28.445312 C 131.175781 28.765625 131.527344 29.046875 131.90625 29.292969 C 132.285156 29.535156 132.6875 29.738281 133.113281 29.898438 C 133.535156 30.054688 133.972656 30.167969 134.417969 30.230469 C 134.867188 30.296875 135.316406 30.3125 135.765625 30.28125 C 137.28125 30.273438 138.675781 29.859375 139.953125 29.035156 L 140.136719 29.238281 Z M 139.5625 30.28125 " fill-opacity="1" fill-rule="nonzero"/><path fill="#231f20" d="M 155.328125 28.570312 C 155.277344 29.105469 155.339844 29.625 155.515625 30.132812 C 155.644531 30.339844 155.882812 30.414062 156.382812 30.429688 L 157.367188 30.429688 L 157.367188 31.066406 L 151.328125 31.066406 L 151.328125 30.429688 L 152.328125 30.429688 C 152.808594 30.429688 153.070312 30.339844 153.179688 30.132812 C 153.355469 29.625 153.414062 29.105469 153.363281 28.570312 L 153.363281 23.875 C 153.125 23.875 152.570312 23.875 151.660156 23.875 L 146.84375 23.875 C 145.9375 23.875 145.378906 23.875 145.140625 23.875 L 145.140625 28.570312 C 145.089844 29.105469 145.152344 29.625 145.324219 30.132812 C 145.4375 30.339844 145.695312 30.414062 146.175781 30.429688 L 147.175781 30.429688 L 147.175781 31.066406 L 141.136719 31.066406 L 141.136719 30.429688 L 142.140625 30.429688 C 142.640625 30.429688 142.878906 30.339844 143.007812 30.132812 C 143.183594 29.625 143.246094 29.105469 143.195312 28.570312 L 143.195312 19.253906 C 143.246094 18.726562 143.1875 18.210938 143.007812 17.707031 C 142.859375 17.390625 142.621094 17.390625 142.140625 17.390625 L 141.15625 17.390625 L 141.15625 16.648438 C 142.230469 16.648438 143.195312 16.648438 144.214844 16.648438 C 145.234375 16.648438 146.066406 16.648438 147.195312 16.648438 L 147.195312 17.28125 L 146.195312 17.28125 C 145.714844 17.28125 145.453125 17.28125 145.34375 17.597656 C 145.167969 18.097656 145.105469 18.613281 145.160156 19.144531 L 145.160156 22.980469 C 145.398438 22.980469 145.953125 22.980469 146.863281 22.980469 L 151.679688 22.980469 C 152.585938 22.980469 153.144531 22.980469 153.382812 22.980469 L 153.382812 19.253906 C 153.4375 18.726562 153.375 18.210938 153.199219 17.707031 C 153.070312 17.390625 152.808594 17.390625 152.328125 17.390625 L 151.328125 17.390625 L 151.328125 16.648438 C 152.402344 16.648438 153.363281 16.648438 154.382812 16.648438 C 155.402344 16.648438 156.238281 16.648438 157.367188 16.648438 L 157.367188 17.28125 L 156.382812 17.28125 C 155.882812 17.28125 155.644531 17.28125 155.515625 17.597656 C 155.335938 18.097656 155.277344 18.613281 155.328125 19.144531 Z M 155.328125 28.570312 " fill-opacity="1" fill-rule="nonzero"/><path fill="#231f20" d="M 160.050781 19.253906 C 160.105469 18.726562 160.042969 18.210938 159.867188 17.707031 C 159.757812 17.390625 159.496094 17.390625 159.015625 17.390625 L 158.015625 17.390625 L 158.015625 16.648438 L 161.496094 16.648438 C 163.351562 16.648438 165.203125 16.648438 166.351562 16.648438 C 167.5 16.648438 168.203125 16.648438 169.019531 16.648438 C 168.789062 17.683594 168.675781 18.734375 168.683594 19.792969 L 167.964844 19.792969 L 167.964844 18.507812 C 167.964844 18.25 167.964844 18.023438 167.777344 17.949219 C 166.453125 17.59375 165.109375 17.449219 163.738281 17.523438 C 163.15625 17.503906 162.582031 17.5625 162.015625 17.691406 L 162.015625 23.277344 C 162.664062 23.277344 163.425781 23.277344 164.40625 23.277344 C 165.152344 23.324219 165.882812 23.222656 166.59375 22.980469 C 166.699219 22.816406 166.753906 22.636719 166.757812 22.441406 L 166.757812 21.359375 L 167.386719 21.359375 C 167.386719 22.214844 167.386719 23 167.386719 23.761719 C 167.386719 24.527344 167.386719 25.308594 167.386719 26.054688 L 166.757812 26.054688 L 166.757812 24.84375 C 166.757812 24.5625 166.757812 24.378906 166.59375 24.320312 C 165.863281 24.101562 165.121094 24.046875 164.367188 24.152344 C 163.386719 24.152344 162.515625 24.152344 161.980469 24.152344 L 161.980469 29.945312 C 162.546875 30.078125 163.121094 30.132812 163.703125 30.113281 C 165.101562 30.179688 166.492188 30.09375 167.871094 29.855469 C 168.183594 29.6875 168.445312 28.773438 168.59375 27.527344 L 169.316406 27.527344 C 169.097656 28.652344 168.984375 29.789062 168.980469 30.933594 C 168.074219 30.933594 166.445312 30.933594 164.925781 30.933594 L 160.441406 30.933594 C 159.644531 30.933594 158.976562 30.933594 158.238281 30.933594 L 158.238281 30.429688 L 158.976562 30.429688 C 159.460938 30.429688 159.71875 30.339844 159.832031 30.132812 C 160.003906 29.625 160.066406 29.105469 160.015625 28.570312 Z M 160.050781 19.253906 " fill-opacity="1" fill-rule="nonzero"/><path fill="#231f20" d="M 174.355469 28.570312 C 174.304688 29.105469 174.367188 29.625 174.539062 30.132812 C 174.652344 30.339844 174.910156 30.414062 175.390625 30.429688 L 176.390625 30.429688 L 176.390625 31.066406 L 170.351562 31.066406 L 170.351562 30.429688 L 171.335938 30.429688 C 171.835938 30.429688 172.074219 30.339844 172.207031 30.132812 C 172.378906 29.625 172.441406 29.105469 172.390625 28.570312 L 172.390625 19.253906 C 172.445312 18.726562 172.382812 18.210938 172.207031 17.707031 C 172.074219 17.390625 171.777344 17.390625 171.335938 17.390625 L 170.351562 17.390625 L 170.351562 16.648438 C 171.425781 16.648438 172.390625 16.648438 173.410156 16.648438 C 174.429688 16.648438 175.261719 16.648438 176.390625 16.648438 L 176.390625 17.28125 L 175.484375 17.390625 C 175.003906 17.390625 174.742188 17.390625 174.632812 17.707031 C 174.457031 18.210938 174.394531 18.726562 174.445312 19.253906 Z M 174.355469 28.570312 " fill-opacity="1" fill-rule="nonzero"/><path fill="#231f20" d="M 178.894531 19.253906 C 178.945312 18.726562 178.882812 18.210938 178.707031 17.707031 C 178.578125 17.390625 178.335938 17.390625 177.835938 17.390625 L 176.929688 17.390625 L 176.929688 16.648438 C 177.835938 16.648438 178.671875 16.648438 179.410156 16.648438 C 179.78125 16.648438 180.152344 16.648438 180.523438 16.648438 L 190.304688 28.867188 L 190.304688 19.253906 C 190.351562 18.726562 190.292969 18.210938 190.136719 17.707031 C 190.007812 17.484375 189.765625 17.429688 189.265625 17.390625 L 188.359375 17.390625 L 188.359375 16.648438 C 189.175781 16.648438 190.007812 16.648438 190.75 16.648438 C 191.488281 16.648438 192.304688 16.648438 193.210938 16.648438 L 193.210938 17.28125 L 192.304688 17.28125 C 191.824219 17.28125 191.5625 17.28125 191.453125 17.597656 C 191.277344 18.097656 191.214844 18.613281 191.265625 19.144531 L 191.265625 30.582031 C 191.265625 30.824219 191.265625 31.082031 191.265625 31.34375 L 189.414062 31.007812 L 179.707031 18.902344 L 179.707031 28.570312 C 179.65625 29.105469 179.71875 29.625 179.894531 30.132812 C 180.023438 30.339844 180.261719 30.394531 180.765625 30.429688 L 181.671875 30.429688 L 181.671875 31.066406 C 180.765625 31.066406 180.023438 31.066406 179.1875 31.066406 L 176.800781 31.066406 L 176.800781 30.429688 L 177.707031 30.429688 C 178.207031 30.429688 178.449219 30.339844 178.578125 30.132812 C 178.75 29.625 178.8125 29.105469 178.761719 28.570312 Z M 178.894531 19.253906 " fill-opacity="1" fill-rule="nonzero"/><path fill="#ed1c24" d="M 30.414062 14.09375 L 30.414062 12.699219 L 11.554688 12.699219 L 11.554688 27.132812 C 14.183594 27.132812 17.113281 25.402344 19.945312 20.875 C 20.476562 19.921875 21.113281 19.046875 21.855469 18.253906 C 22.597656 17.457031 23.425781 16.765625 24.339844 16.171875 C 25.253906 15.582031 26.222656 15.109375 27.25 14.757812 C 28.277344 14.40625 29.332031 14.1875 30.414062 14.09375 Z M 30.414062 14.09375 " fill-opacity="1" fill-rule="nonzero"/><path fill="#0072bc" d="M 11.554688 29.761719 L 11.554688 31.140625 L 30.414062 31.140625 L 30.414062 16.722656 C 27.78125 16.722656 24.855469 18.433594 22.023438 22.960938 C 21.492188 23.914062 20.855469 24.792969 20.113281 25.589844 C 19.371094 26.386719 18.542969 27.082031 17.632812 27.675781 C 16.71875 28.265625 15.75 28.738281 14.722656 29.09375 C 13.691406 29.445312 12.636719 29.667969 11.554688 29.761719 Z M 11.554688 29.761719 " fill-opacity="1" fill-rule="nonzero"/><path fill="#231f20" d="M 200.160156 18.863281 C 200.15625 19.273438 200.078125 19.671875 199.917969 20.050781 C 199.757812 20.429688 199.535156 20.761719 199.246094 21.054688 C 198.953125 21.34375 198.621094 21.566406 198.242188 21.722656 C 197.863281 21.878906 197.46875 21.957031 197.058594 21.957031 C 196.652344 21.953125 196.257812 21.875 195.878906 21.71875 C 195.5 21.558594 195.167969 21.335938 194.878906 21.042969 C 194.589844 20.753906 194.367188 20.417969 194.207031 20.039062 C 194.050781 19.65625 193.972656 19.261719 193.972656 18.851562 C 193.972656 18.441406 194.046875 18.042969 194.203125 17.664062 C 194.359375 17.28125 194.582031 16.945312 194.871094 16.652344 C 195.15625 16.363281 195.492188 16.136719 195.867188 15.976562 C 196.246094 15.816406 196.636719 15.734375 197.046875 15.734375 C 197.460938 15.734375 197.855469 15.8125 198.238281 15.972656 C 198.621094 16.128906 198.957031 16.355469 199.25 16.652344 C 199.539062 16.945312 199.765625 17.28125 199.921875 17.664062 C 200.082031 18.050781 200.160156 18.449219 200.160156 18.863281 Z M 194.34375 18.863281 C 194.34375 19.226562 194.410156 19.578125 194.550781 19.914062 C 194.6875 20.25 194.886719 20.546875 195.140625 20.800781 C 195.398438 21.058594 195.695312 21.257812 196.027344 21.394531 C 196.363281 21.535156 196.710938 21.601562 197.070312 21.601562 C 197.433594 21.601562 197.78125 21.53125 198.113281 21.390625 C 198.449219 21.25 198.742188 21.050781 199 20.792969 C 199.253906 20.535156 199.449219 20.238281 199.585938 19.902344 C 199.722656 19.566406 199.789062 19.214844 199.789062 18.851562 C 199.789062 18.488281 199.714844 18.136719 199.578125 17.800781 C 199.4375 17.46875 199.238281 17.171875 198.980469 16.917969 C 198.722656 16.660156 198.425781 16.464844 198.09375 16.328125 C 197.757812 16.191406 197.410156 16.121094 197.046875 16.125 C 196.6875 16.128906 196.34375 16.199219 196.011719 16.339844 C 195.679688 16.480469 195.386719 16.675781 195.132812 16.933594 C 194.878906 17.191406 194.683594 17.484375 194.546875 17.820312 C 194.410156 18.152344 194.34375 18.5 194.34375 18.863281 Z M 196.953125 17 C 197.546875 17 198.289062 17 198.289062 17.839844 C 198.289062 18.675781 197.824219 18.675781 197.34375 18.75 C 197.714844 18.75 197.957031 19.328125 198.085938 19.644531 C 198.148438 19.835938 198.242188 20.007812 198.363281 20.167969 C 198.457031 20.253906 198.566406 20.292969 198.695312 20.277344 L 198.695312 20.410156 L 198.457031 20.410156 C 198.265625 20.433594 198.085938 20.402344 197.917969 20.316406 C 197.761719 20.113281 197.644531 19.890625 197.566406 19.644531 C 197.484375 19.398438 197.367188 19.167969 197.214844 18.957031 C 197.066406 18.808594 196.84375 18.84375 196.675781 18.84375 L 196.511719 18.84375 L 196.511719 20 C 196.511719 20.222656 196.511719 20.316406 196.75 20.316406 L 196.9375 20.316406 L 196.9375 20.445312 L 195.640625 20.445312 L 195.640625 20.335938 L 195.863281 20.335938 C 196.066406 20.335938 196.140625 20.335938 196.140625 20.054688 L 196.140625 17.390625 C 196.140625 17.167969 196.011719 17.148438 195.863281 17.148438 L 195.714844 17.148438 L 195.714844 17.054688 Z M 196.511719 18.660156 L 196.75 18.660156 C 197.289062 18.660156 197.808594 18.546875 197.808594 17.894531 C 197.808594 17.242188 197.472656 17.148438 196.992188 17.148438 L 196.75 17.148438 C 196.492188 17.148438 196.511719 17.316406 196.511719 17.523438 Z M 196.511719 18.660156 " fill-opacity="1" fill-rule="nonzero"/><g fill="#2f2c2d" fill-opacity="1"><g transform="translate(10.881512, 48.297159)"><g><path d="M 1.953125 -9.359375 L 1.953125 -5.578125 L 6.421875 -5.578125 L 6.421875 -9.359375 L 7.578125 -9.359375 L 7.578125 0 L 6.421875 0 L 6.421875 -4.484375 L 1.953125 -4.484375 L 1.953125 0 L 0.796875 0 L 0.796875 -9.359375 Z M 1.953125 -9.359375 "/></g></g></g><g fill="#2f2c2d" fill-opacity="1"><g transform="translate(19.258529, 48.297159)"><g><path d="M 5.921875 -9.359375 L 5.921875 -8.28125 L 2.0625 -8.28125 L 2.0625 -5.671875 L 5.8125 -5.671875 L 5.8125 -4.609375 L 2.0625 -4.609375 L 2.0625 -1.0625 L 5.921875 -1.0625 L 5.921875 0 L 0.890625 0 L 0.890625 -9.359375 Z M 5.921875 -9.359375 "/></g></g></g><g fill="#2f2c2d" fill-opacity="1"><g transform="translate(25.724342, 48.297159)"><g><path d="M 4.359375 -9.75 L 8.828125 0 L 7.578125 0 L 6.515625 -2.34375 L 2.21875 -2.34375 L 1.15625 0 L -0.09375 0 Z M 2.703125 -3.40625 L 6.03125 -3.40625 L 4.359375 -7.203125 Z M 2.703125 -3.40625 "/></g></g></g><g fill="#2f2c2d" fill-opacity="1"><g transform="translate(34.448847, 48.297159)"><g><path d="M 2.0625 -9.359375 L 2.0625 -1.0625 L 4.90625 -1.0625 L 4.90625 0 L 0.890625 0 L 0.890625 -9.359375 Z M 2.0625 -9.359375 "/></g></g></g><g fill="#2f2c2d" fill-opacity="1"><g transform="translate(38.854456, 48.297159)"><g><path d="M 5.625 -9.359375 L 5.625 -8.28125 L 3.40625 -8.28125 L 3.40625 0 L 2.25 0 L 2.25 -8.28125 L 0.03125 -8.28125 L 0.03125 -9.359375 Z M 5.625 -9.359375 "/></g></g></g><g fill="#2f2c2d" fill-opacity="1"><g transform="translate(44.513597, 48.297159)"><g><path d="M 1.953125 -9.359375 L 1.953125 -5.578125 L 6.421875 -5.578125 L 6.421875 -9.359375 L 7.578125 -9.359375 L 7.578125 0 L 6.421875 0 L 6.421875 -4.484375 L 1.953125 -4.484375 L 1.953125 0 L 0.796875 0 L 0.796875 -9.359375 Z M 1.953125 -9.359375 "/></g></g></g><g fill="#2f2c2d" fill-opacity="1"><g transform="translate(52.890614, 48.297159)"><g/></g></g><g fill="#2f2c2d" fill-opacity="1"><g transform="translate(56.477217, 48.297159)"><g><path d="M 4.125 -6.359375 L 4.125 -3.703125 L 6.765625 -3.703125 L 6.765625 -2.640625 L 4.125 -2.640625 L 4.125 0 L 3.046875 0 L 3.046875 -2.640625 L 0.40625 -2.640625 L 0.40625 -3.703125 L 3.046875 -3.703125 L 3.046875 -6.359375 Z M 4.125 -6.359375 "/></g></g></g><g fill="#2f2c2d" fill-opacity="1"><g transform="translate(63.650422, 48.297159)"><g/></g></g><g fill="#2f2c2d" fill-opacity="1"><g transform="translate(67.237024, 48.297159)"><g><path d="M 5.984375 -8.140625 L 5.046875 -7.578125 C 4.867188 -7.867188 4.660156 -8.085938 4.421875 -8.234375 C 4.191406 -8.390625 3.898438 -8.46875 3.546875 -8.46875 C 3.128906 -8.46875 2.765625 -8.335938 2.453125 -8.078125 C 2.140625 -7.816406 1.984375 -7.503906 1.984375 -7.140625 C 1.984375 -6.835938 2.09375 -6.578125 2.3125 -6.359375 C 2.53125 -6.140625 2.851562 -5.953125 3.28125 -5.796875 L 3.953125 -5.53125 C 4.742188 -5.238281 5.328125 -4.867188 5.703125 -4.421875 C 6.085938 -3.972656 6.28125 -3.40625 6.28125 -2.71875 C 6.28125 -1.863281 5.988281 -1.160156 5.40625 -0.609375 C 4.820312 -0.0664062 4.113281 0.203125 3.28125 0.203125 C 2.5625 0.203125 1.929688 -0.0351562 1.390625 -0.515625 C 0.847656 -0.992188 0.515625 -1.628906 0.390625 -2.421875 L 1.578125 -2.671875 C 1.578125 -2.160156 1.75 -1.734375 2.09375 -1.390625 C 2.445312 -1.054688 2.878906 -0.890625 3.390625 -0.890625 C 3.867188 -0.890625 4.273438 -1.0625 4.609375 -1.40625 C 4.941406 -1.757812 5.109375 -2.195312 5.109375 -2.71875 C 5.109375 -3.125 4.984375 -3.457031 4.734375 -3.71875 C 4.492188 -3.988281 4.082031 -4.242188 3.5 -4.484375 L 2.859375 -4.765625 C 2.109375 -5.078125 1.578125 -5.421875 1.265625 -5.796875 C 0.960938 -6.179688 0.8125 -6.628906 0.8125 -7.140625 C 0.8125 -7.828125 1.078125 -8.398438 1.609375 -8.859375 C 2.148438 -9.316406 2.804688 -9.546875 3.578125 -9.546875 C 4.097656 -9.546875 4.5625 -9.425781 4.96875 -9.1875 C 5.382812 -8.945312 5.722656 -8.597656 5.984375 -8.140625 Z M 5.984375 -8.140625 "/></g></g></g><g fill="#2f2c2d" fill-opacity="1"><g transform="translate(73.901407, 48.297159)"><g><path d="M 4.359375 -9.75 L 8.828125 0 L 7.578125 0 L 6.515625 -2.34375 L 2.21875 -2.34375 L 1.15625 0 L -0.09375 0 Z M 2.703125 -3.40625 L 6.03125 -3.40625 L 4.359375 -7.203125 Z M 2.703125 -3.40625 "/></g></g></g><g fill="#2f2c2d" fill-opacity="1"><g transform="translate(82.625912, 48.297159)"><g><path d="M 5.40625 -9.359375 L 5.40625 -8.28125 L 2.046875 -8.28125 L 2.046875 -5.65625 L 5.296875 -5.65625 L 5.296875 -4.59375 L 2.046875 -4.59375 L 2.046875 0 L 0.875 0 L 0.875 -9.359375 Z M 5.40625 -9.359375 "/></g></g></g><g fill="#2f2c2d" fill-opacity="1"><g transform="translate(88.508437, 48.297159)"><g><path d="M 5.921875 -9.359375 L 5.921875 -8.28125 L 2.0625 -8.28125 L 2.0625 -5.671875 L 5.8125 -5.671875 L 5.8125 -4.609375 L 2.0625 -4.609375 L 2.0625 -1.0625 L 5.921875 -1.0625 L 5.921875 0 L 0.890625 0 L 0.890625 -9.359375 Z M 5.921875 -9.359375 "/></g></g></g><g fill="#2f2c2d" fill-opacity="1"><g transform="translate(94.97425, 48.297159)"><g><path d="M 5.625 -9.359375 L 5.625 -8.28125 L 3.40625 -8.28125 L 3.40625 0 L 2.25 0 L 2.25 -8.28125 L 0.03125 -8.28125 L 0.03125 -9.359375 Z M 5.625 -9.359375 "/></g></g></g><g fill="#2f2c2d" fill-opacity="1"><g transform="translate(100.633391, 48.297159)"><g><path d="M 1.265625 -9.359375 L 3.5625 -5.359375 L 5.859375 -9.359375 L 7.203125 -9.359375 L 4.140625 -4.0625 L 4.140625 0 L 2.984375 0 L 2.984375 -4.0625 L -0.078125 -9.359375 Z M 1.265625 -9.359375 "/></g></g></g><g fill="#2f2c2d" fill-opacity="1"><g transform="translate(224.249672, 24.949928)"><g><path d="M 13.78125 0.0625 C 13.019531 0.0195312 12.25 0 11.46875 0 C 10.613281 0 9.769531 0.0195312 8.9375 0.0625 L 8.9375 -0.5 L 9.796875 -0.546875 C 10.023438 -0.566406 10.207031 -0.609375 10.34375 -0.671875 C 10.476562 -0.734375 10.546875 -0.8125 10.546875 -0.90625 C 10.546875 -1 10.519531 -1.125 10.46875 -1.28125 C 10.414062 -1.4375 10.3125 -1.703125 10.15625 -2.078125 L 9.3125 -4.171875 L 4.0625 -4.171875 L 3.5625 -2.953125 C 3.363281 -2.503906 3.207031 -2.097656 3.09375 -1.734375 C 2.976562 -1.378906 2.921875 -1.140625 2.921875 -1.015625 C 2.921875 -0.867188 2.984375 -0.757812 3.109375 -0.6875 C 3.242188 -0.613281 3.472656 -0.566406 3.796875 -0.546875 L 4.46875 -0.5 L 4.46875 0.0625 C 3.738281 0.0195312 3.003906 0 2.265625 0 C 1.597656 0 0.9375 0.0195312 0.28125 0.0625 L 0.28125 -0.5 L 0.953125 -0.546875 C 1.347656 -0.585938 1.675781 -0.882812 1.9375 -1.4375 L 5.96875 -10.59375 C 6.3125 -11.375 6.546875 -11.929688 6.671875 -12.265625 C 6.796875 -12.597656 6.859375 -12.765625 6.859375 -12.765625 L 7.4375 -12.765625 L 11.859375 -2.40625 C 12.078125 -1.914062 12.25 -1.535156 12.375 -1.265625 C 12.507812 -1.003906 12.632812 -0.820312 12.75 -0.71875 C 12.863281 -0.613281 13.003906 -0.554688 13.171875 -0.546875 L 13.78125 -0.5 Z M 8.984375 -4.90625 L 6.6875 -10.34375 L 4.375 -4.90625 Z M 8.984375 -4.90625 "/></g></g></g><g fill="#2f2c2d" fill-opacity="1"><g transform="translate(238.429064, 24.949928)"><g><path d="M 14.828125 -12.078125 L 14.015625 -12.015625 C 13.742188 -12.003906 13.539062 -11.957031 13.40625 -11.875 C 13.269531 -11.800781 13.179688 -11.648438 13.140625 -11.421875 C 13.109375 -11.203125 13.09375 -10.851562 13.09375 -10.375 L 13.09375 -0.3125 C 13.09375 -0.226562 13.097656 -0.117188 13.109375 0.015625 C 13.128906 0.148438 13.140625 0.265625 13.140625 0.359375 L 11.5 0.078125 L 2.875 -10.625 L 2.875 -2.1875 C 2.875 -1.71875 2.890625 -1.367188 2.921875 -1.140625 C 2.960938 -0.910156 3.050781 -0.757812 3.1875 -0.6875 C 3.320312 -0.613281 3.53125 -0.566406 3.8125 -0.546875 L 4.609375 -0.5 L 4.609375 0.0625 C 3.878906 0.0195312 3.148438 0 2.421875 0 C 1.734375 0 1.03125 0.0195312 0.3125 0.0625 L 0.3125 -0.5 L 1.109375 -0.546875 C 1.390625 -0.566406 1.597656 -0.613281 1.734375 -0.6875 C 1.867188 -0.757812 1.953125 -0.910156 1.984375 -1.140625 C 2.023438 -1.367188 2.046875 -1.71875 2.046875 -2.1875 L 2.046875 -10.375 C 2.046875 -10.851562 2.023438 -11.203125 1.984375 -11.421875 C 1.953125 -11.648438 1.867188 -11.800781 1.734375 -11.875 C 1.597656 -11.957031 1.390625 -12.003906 1.109375 -12.015625 L 0.3125 -12.078125 L 0.3125 -12.625 C 0.3125 -12.625 0.429688 -12.613281 0.671875 -12.59375 C 0.921875 -12.582031 1.21875 -12.570312 1.5625 -12.5625 C 1.90625 -12.5625 2.21875 -12.5625 2.5 -12.5625 C 2.695312 -12.5625 2.910156 -12.570312 3.140625 -12.59375 C 3.367188 -12.613281 3.484375 -12.625 3.484375 -12.625 L 12.25 -1.78125 L 12.25 -10.375 C 12.25 -10.851562 12.226562 -11.203125 12.1875 -11.421875 C 12.15625 -11.648438 12.070312 -11.800781 11.9375 -11.875 C 11.8125 -11.957031 11.609375 -12.003906 11.328125 -12.015625 L 10.515625 -12.078125 L 10.515625 -12.625 C 11.234375 -12.582031 11.941406 -12.5625 12.640625 -12.5625 C 13.367188 -12.5625 14.097656 -12.582031 14.828125 -12.625 Z M 14.828125 -12.078125 "/></g></g></g><g fill="#2f2c2d" fill-opacity="1"><g transform="translate(253.574402, 24.949928)"><g><path d="M 11.640625 -3.15625 C 11.609375 -2.820312 11.582031 -2.507812 11.5625 -2.21875 C 11.550781 -1.925781 11.539062 -1.601562 11.53125 -1.25 C 11.53125 -0.90625 11.53125 -0.46875 11.53125 0.0625 C 9.664062 0.0195312 7.8125 0 5.96875 0 C 4.070312 0 2.175781 0.0195312 0.28125 0.0625 L 0.28125 -0.453125 C 0.28125 -0.453125 0.359375 -0.539062 0.515625 -0.71875 C 0.671875 -0.90625 0.851562 -1.125 1.0625 -1.375 C 1.28125 -1.632812 1.484375 -1.878906 1.671875 -2.109375 C 1.859375 -2.347656 1.984375 -2.507812 2.046875 -2.59375 L 7.546875 -9.671875 C 7.890625 -10.085938 8.175781 -10.453125 8.40625 -10.765625 C 8.644531 -11.085938 8.882812 -11.4375 9.125 -11.8125 L 4.953125 -11.8125 C 4.210938 -11.8125 3.644531 -11.789062 3.25 -11.75 C 2.851562 -11.707031 2.582031 -11.625 2.4375 -11.5 C 2.289062 -11.382812 2.207031 -11.203125 2.1875 -10.953125 L 2.078125 -9.671875 L 1.453125 -9.671875 C 1.484375 -10.003906 1.5 -10.257812 1.5 -10.4375 C 1.507812 -10.613281 1.515625 -10.847656 1.515625 -11.140625 C 1.515625 -11.429688 1.507812 -11.664062 1.5 -11.84375 C 1.5 -12.019531 1.484375 -12.28125 1.453125 -12.625 L 4.46875 -12.625 C 5.007812 -12.625 5.492188 -12.613281 5.921875 -12.59375 C 6.359375 -12.582031 6.789062 -12.570312 7.21875 -12.5625 C 7.65625 -12.5625 8.148438 -12.5625 8.703125 -12.5625 C 8.984375 -12.5625 9.285156 -12.5625 9.609375 -12.5625 C 9.941406 -12.570312 10.253906 -12.578125 10.546875 -12.578125 C 10.835938 -12.585938 11.078125 -12.597656 11.265625 -12.609375 C 11.453125 -12.617188 11.546875 -12.625 11.546875 -12.625 L 11.609375 -12.09375 L 2.75 -0.796875 L 7.734375 -0.796875 C 8.421875 -0.796875 8.972656 -0.804688 9.390625 -0.828125 C 9.804688 -0.859375 10.113281 -0.914062 10.3125 -1 C 10.519531 -1.082031 10.660156 -1.210938 10.734375 -1.390625 C 10.804688 -1.566406 10.863281 -1.804688 10.90625 -2.109375 L 11.015625 -3.15625 Z M 11.640625 -3.15625 "/></g></g></g><g fill="#2f2c2d" fill-opacity="1"><g transform="translate(224.249672, 43.498823)"><g><path d="M 16.96875 -5.734375 L 16.296875 -5.5 C 16.179688 -5.457031 16.109375 -5.390625 16.078125 -5.296875 C 16.046875 -5.210938 16.03125 -4.992188 16.03125 -4.640625 L 16.03125 -0.71875 C 14.976562 -0.425781 14.070312 -0.191406 13.3125 -0.015625 C 12.5625 0.148438 11.894531 0.269531 11.3125 0.34375 C 10.726562 0.425781 10.160156 0.46875 9.609375 0.46875 C 8.253906 0.46875 6.984375 0.242188 5.796875 -0.203125 C 4.609375 -0.660156 3.601562 -1.285156 2.78125 -2.078125 C 2.0625 -2.804688 1.503906 -3.671875 1.109375 -4.671875 C 0.710938 -5.671875 0.515625 -6.765625 0.515625 -7.953125 C 0.515625 -9.671875 0.925781 -11.171875 1.75 -12.453125 C 2.570312 -13.742188 3.734375 -14.742188 5.234375 -15.453125 C 6.734375 -16.171875 8.484375 -16.53125 10.484375 -16.53125 C 11.109375 -16.53125 11.6875 -16.5 12.21875 -16.4375 C 12.75 -16.382812 13.316406 -16.289062 13.921875 -16.15625 C 14.535156 -16.019531 15.269531 -15.828125 16.125 -15.578125 C 15.820312 -14.378906 15.671875 -13.195312 15.671875 -12.03125 L 14.9375 -12.03125 L 14.9375 -13.265625 C 14.9375 -13.710938 14.785156 -14.078125 14.484375 -14.359375 C 14.179688 -14.648438 13.691406 -14.90625 13.015625 -15.125 C 12.117188 -15.40625 11.078125 -15.546875 9.890625 -15.546875 C 7.710938 -15.546875 6.019531 -14.921875 4.8125 -13.671875 C 3.601562 -12.429688 3 -10.6875 3 -8.4375 C 3 -6.820312 3.3125 -5.421875 3.9375 -4.234375 C 4.5625 -3.046875 5.4375 -2.128906 6.5625 -1.484375 C 7.6875 -0.835938 9.019531 -0.515625 10.5625 -0.515625 C 11.332031 -0.515625 12.023438 -0.585938 12.640625 -0.734375 C 13.253906 -0.878906 13.625 -1.0625 13.75 -1.28125 C 13.800781 -1.363281 13.835938 -1.476562 13.859375 -1.625 C 13.878906 -1.78125 13.890625 -2 13.890625 -2.28125 L 13.890625 -4.640625 C 13.890625 -4.921875 13.832031 -5.125 13.71875 -5.25 C 13.601562 -5.375 13.398438 -5.441406 13.109375 -5.453125 L 11.171875 -5.625 L 11.171875 -6.3125 C 12.128906 -6.269531 13.078125 -6.25 14.015625 -6.25 C 14.972656 -6.25 15.925781 -6.269531 16.875 -6.3125 Z M 16.96875 -5.734375 "/></g></g></g><g fill="#2f2c2d" fill-opacity="1"><g transform="translate(242.036267, 43.498823)"><g><path d="M 15.59375 0.0625 C 15.03125 0.0195312 14.472656 0 13.921875 0 C 13.398438 0 12.867188 0.0195312 12.328125 0.0625 L 11.375 -1.1875 L 7.09375 -6.953125 C 6.90625 -7.210938 6.742188 -7.425781 6.609375 -7.59375 C 6.472656 -7.769531 6.273438 -8 6.015625 -8.28125 L 6.015625 -8.65625 L 6.6875 -8.65625 C 8.039062 -8.65625 9.113281 -8.96875 9.90625 -9.59375 C 10.695312 -10.21875 11.09375 -11.066406 11.09375 -12.140625 C 11.09375 -13.140625 10.765625 -13.90625 10.109375 -14.4375 C 9.460938 -14.976562 8.53125 -15.25 7.3125 -15.25 C 6.925781 -15.25 6.550781 -15.222656 6.1875 -15.171875 C 5.820312 -15.128906 5.4375 -15.0625 5.03125 -14.96875 L 5.03125 -2.796875 C 5.03125 -2.191406 5.050781 -1.738281 5.09375 -1.4375 C 5.144531 -1.144531 5.253906 -0.957031 5.421875 -0.875 C 5.597656 -0.789062 5.863281 -0.734375 6.21875 -0.703125 L 7.34375 -0.625 L 7.34375 0.0625 C 6.207031 0.0195312 5.066406 0 3.921875 0 C 2.796875 0 1.660156 0.0195312 0.515625 0.0625 L 0.515625 -0.625 L 1.625 -0.703125 C 1.988281 -0.734375 2.253906 -0.789062 2.421875 -0.875 C 2.597656 -0.957031 2.707031 -1.144531 2.75 -1.4375 C 2.800781 -1.738281 2.828125 -2.191406 2.828125 -2.796875 L 2.828125 -13.265625 C 2.828125 -13.867188 2.800781 -14.3125 2.75 -14.59375 C 2.707031 -14.882812 2.597656 -15.082031 2.421875 -15.1875 C 2.253906 -15.289062 1.988281 -15.347656 1.625 -15.359375 L 0.671875 -15.4375 L 0.671875 -16.125 C 2.023438 -16.082031 3.367188 -16.0625 4.703125 -16.0625 C 5.410156 -16.0625 6.109375 -16.070312 6.796875 -16.09375 C 7.484375 -16.113281 8.175781 -16.125 8.875 -16.125 C 10.40625 -16.125 11.546875 -15.820312 12.296875 -15.21875 C 13.046875 -14.613281 13.421875 -13.753906 13.421875 -12.640625 C 13.421875 -11.265625 12.800781 -10.132812 11.5625 -9.25 C 11.175781 -8.988281 10.796875 -8.78125 10.421875 -8.625 C 10.046875 -8.46875 9.53125 -8.304688 8.875 -8.140625 L 14.171875 -1.234375 C 14.328125 -1.035156 14.507812 -0.890625 14.71875 -0.796875 C 14.925781 -0.710938 15.21875 -0.65625 15.59375 -0.625 Z M 15.59375 0.0625 "/></g></g></g><g fill="#2f2c2d" fill-opacity="1"><g transform="translate(256.675737, 43.498823)"><g><path d="M 17.8125 -8.5625 C 17.8125 -7.28125 17.578125 -6.09375 17.109375 -5 C 16.640625 -3.90625 15.992188 -2.945312 15.171875 -2.125 C 14.347656 -1.300781 13.375 -0.660156 12.25 -0.203125 C 11.132812 0.242188 9.925781 0.46875 8.625 0.46875 C 7.445312 0.46875 6.363281 0.265625 5.375 -0.140625 C 4.382812 -0.554688 3.523438 -1.140625 2.796875 -1.890625 C 2.066406 -2.648438 1.503906 -3.539062 1.109375 -4.5625 C 0.710938 -5.59375 0.515625 -6.722656 0.515625 -7.953125 C 0.515625 -9.660156 0.882812 -11.160156 1.625 -12.453125 C 2.363281 -13.742188 3.394531 -14.742188 4.71875 -15.453125 C 6.050781 -16.171875 7.601562 -16.53125 9.375 -16.53125 C 11.09375 -16.53125 12.585938 -16.207031 13.859375 -15.5625 C 15.128906 -14.914062 16.101562 -13.992188 16.78125 -12.796875 C 17.46875 -11.597656 17.8125 -10.1875 17.8125 -8.5625 Z M 15.3125 -7.859375 C 15.3125 -10.285156 14.75 -12.171875 13.625 -13.515625 C 12.507812 -14.867188 10.957031 -15.546875 8.96875 -15.546875 C 7.0625 -15.546875 5.585938 -14.960938 4.546875 -13.796875 C 3.515625 -12.628906 3 -10.96875 3 -8.8125 C 3 -7.144531 3.273438 -5.691406 3.828125 -4.453125 C 4.378906 -3.210938 5.144531 -2.242188 6.125 -1.546875 C 7.101562 -0.859375 8.25 -0.515625 9.5625 -0.515625 C 11.363281 -0.515625 12.769531 -1.160156 13.78125 -2.453125 C 14.800781 -3.753906 15.3125 -5.554688 15.3125 -7.859375 Z M 15.3125 -7.859375 "/></g></g></g><g fill="#2f2c2d" fill-opacity="1"><g transform="translate(274.998495, 43.498823)"><g><path d="M 17.6875 -15.4375 L 16.671875 -15.359375 C 16.304688 -15.347656 16.039062 -15.289062 15.875 -15.1875 C 15.707031 -15.082031 15.597656 -14.882812 15.546875 -14.59375 C 15.503906 -14.3125 15.484375 -13.867188 15.484375 -13.265625 L 15.484375 -6.53125 C 15.484375 -3.976562 14.945312 -2.164062 13.875 -1.09375 C 12.84375 -0.0507812 11.15625 0.46875 8.8125 0.46875 C 6.46875 0.46875 4.828125 -0.015625 3.890625 -0.984375 C 3.023438 -1.867188 2.59375 -3.203125 2.59375 -4.984375 L 2.59375 -13.265625 C 2.59375 -13.890625 2.566406 -14.34375 2.515625 -14.625 C 2.472656 -14.914062 2.363281 -15.109375 2.1875 -15.203125 C 2.019531 -15.296875 1.757812 -15.347656 1.40625 -15.359375 L 0.28125 -15.4375 L 0.28125 -16.125 C 1.425781 -16.082031 2.5625 -16.0625 3.6875 -16.0625 C 4.832031 -16.0625 5.972656 -16.082031 7.109375 -16.125 L 7.109375 -15.4375 L 5.984375 -15.359375 C 5.628906 -15.347656 5.363281 -15.296875 5.1875 -15.203125 C 5.019531 -15.109375 4.910156 -14.914062 4.859375 -14.625 C 4.816406 -14.34375 4.796875 -13.890625 4.796875 -13.265625 L 4.796875 -5.25 C 4.796875 -3.75 5.164062 -2.660156 5.90625 -1.984375 C 6.644531 -1.316406 7.820312 -0.984375 9.4375 -0.984375 C 11.132812 -0.984375 12.382812 -1.375 13.1875 -2.15625 C 14 -2.9375 14.40625 -4.15625 14.40625 -5.8125 L 14.40625 -13.265625 C 14.40625 -13.867188 14.378906 -14.3125 14.328125 -14.59375 C 14.285156 -14.882812 14.175781 -15.082031 14 -15.1875 C 13.832031 -15.289062 13.570312 -15.347656 13.21875 -15.359375 L 12.1875 -15.4375 L 12.1875 -16.125 C 13.101562 -16.082031 14.003906 -16.0625 14.890625 -16.0625 C 15.828125 -16.0625 16.757812 -16.082031 17.6875 -16.125 Z M 17.6875 -15.4375 "/></g></g></g><g fill="#2f2c2d" fill-opacity="1"><g transform="translate(293.134764, 43.498823)"><g><path d="M 13.515625 -12.515625 C 13.515625 -11.585938 13.265625 -10.75 12.765625 -10 C 12.273438 -9.25 11.601562 -8.648438 10.75 -8.203125 C 9.90625 -7.765625 8.945312 -7.546875 7.875 -7.546875 C 7.644531 -7.546875 7.429688 -7.550781 7.234375 -7.5625 C 7.046875 -7.582031 6.8125 -7.625 6.53125 -7.6875 L 6.296875 -8.53125 C 6.609375 -8.4375 6.863281 -8.375 7.0625 -8.34375 C 7.257812 -8.3125 7.484375 -8.296875 7.734375 -8.296875 C 8.742188 -8.296875 9.570312 -8.628906 10.21875 -9.296875 C 10.863281 -9.960938 11.1875 -10.816406 11.1875 -11.859375 C 11.1875 -12.960938 10.851562 -13.800781 10.1875 -14.375 C 9.53125 -14.957031 8.570312 -15.25 7.3125 -15.25 C 6.925781 -15.25 6.550781 -15.222656 6.1875 -15.171875 C 5.820312 -15.128906 5.4375 -15.0625 5.03125 -14.96875 L 5.03125 -2.796875 C 5.03125 -2.191406 5.050781 -1.738281 5.09375 -1.4375 C 5.144531 -1.144531 5.253906 -0.957031 5.421875 -0.875 C 5.597656 -0.789062 5.863281 -0.734375 6.21875 -0.703125 L 7.34375 -0.625 L 7.34375 0.0625 C 6.207031 0.0195312 5.066406 0 3.921875 0 C 2.796875 0 1.660156 0.0195312 0.515625 0.0625 L 0.515625 -0.625 L 1.625 -0.703125 C 1.988281 -0.734375 2.253906 -0.789062 2.421875 -0.875 C 2.597656 -0.957031 2.707031 -1.144531 2.75 -1.4375 C 2.800781 -1.738281 2.828125 -2.191406 2.828125 -2.796875 L 2.828125 -13.265625 C 2.828125 -13.835938 2.796875 -14.269531 2.734375 -14.5625 C 2.671875 -14.863281 2.550781 -15.066406 2.375 -15.171875 C 2.207031 -15.285156 1.941406 -15.347656 1.578125 -15.359375 L 0.53125 -15.4375 L 0.53125 -16.125 C 1.96875 -16.082031 3.382812 -16.0625 4.78125 -16.0625 C 5.445312 -16.0625 6.101562 -16.070312 6.75 -16.09375 C 7.40625 -16.113281 8.070312 -16.125 8.75 -16.125 C 10.21875 -16.125 11.378906 -15.800781 12.234375 -15.15625 C 13.085938 -14.519531 13.515625 -13.640625 13.515625 -12.515625 Z M 13.515625 -12.515625 "/></g></g></g><path stroke-linecap="butt" transform="matrix(0, -0.743644, 0.743644, 0, 210.162323, 52.114246)" fill="none" stroke-linejoin="miter" d="M 0.00129774 0.50136 L 65.640904 0.50136 " stroke="#000000" stroke-width="1" stroke-opacity="1" stroke-miterlimit="4"/></svg>